<?xml version="1.0" encoding="utf-8"?>
<!-- Svg Vector Icons : http://www.sfont.cn -->
<!DOCTYPE svg PUBLIC "-//W3C//DTD SVG 1.1//EN" "http://www.w3.org/Graphics/SVG/1.1/DTD/svg11.dtd">
<svg version="1.1" xmlns="http://www.w3.org/2000/svg" xmlns:xlink="http://www.w3.org/1999/xlink" x="0px" y="0px" viewBox="0 0 1000 1000" enable-background="new 0 0 1000 1000" xml:space="preserve">
<metadata> Svg Vector Icons : http://www.sfont.cn </metadata>
<g><path d="M132.5,402C92.1,402,59,368.9,59,328.5v-196C59,92.1,92.1,59,132.5,59h196c40.4,0,73.5,33.1,73.5,73.5v196c0,40.4-33.1,73.5-73.5,73.5H132.5z M451,328.5v-196C451,65.1,395.9,10,328.5,10h-196C65.1,10,10,65.1,10,132.5v196C10,395.9,65.1,451,132.5,451h196C395.9,451,451,395.9,451,328.5z M867.5,402h-196c-40.4,0-73.5-33.1-73.5-73.5v-196c0-40.4,33.1-73.5,73.5-73.5h196c40.4,0,73.5,33.1,73.5,73.5v196C941,368.9,907.9,402,867.5,402z M990,132.5C990,65.1,934.9,10,867.5,10h-196C604.1,10,549,65.1,549,132.5v196c0,67.4,55.1,122.5,122.5,122.5h196c67.4,0,122.5-55.1,122.5-122.5V132.5z M328.5,941h-196C92.1,941,59,907.9,59,867.5v-196c0-40.4,33.1-73.5,73.5-73.5h196c40.4,0,73.5,33.1,73.5,73.5v196C402,907.9,368.9,941,328.5,941z M451,671.5c0-67.4-55.1-122.5-122.5-122.5h-196C65.1,549,10,604.1,10,671.5v196C10,934.9,65.1,990,132.5,990h196c67.4,0,122.5-55.1,122.5-122.5V671.5z M671.5,941c-40.4,0-73.5-33.1-73.5-73.5v-196c0-40.4,33.1-73.5,73.5-73.5h196c40.4,0,73.5,33.1,73.5,73.5v196c0,40.4-33.1,73.5-73.5,73.5H671.5z M990,867.5v-196c0-67.4-55.1-122.5-122.5-122.5h-196C604.1,549,549,604.1,549,671.5v196c0,67.4,55.1,122.5,122.5,122.5h196C934.9,990,990,934.9,990,867.5z"/></g>
</svg>