<?xml version="1.0" encoding="utf-8"?>
<!-- Svg Vector Icons : http://www.sfont.cn -->
<!DOCTYPE svg PUBLIC "-//W3C//DTD SVG 1.1//EN" "http://www.w3.org/Graphics/SVG/1.1/DTD/svg11.dtd">
<svg version="1.1" xmlns="http://www.w3.org/2000/svg" xmlns:xlink="http://www.w3.org/1999/xlink" x="0px" y="0px" viewBox="0 0 1000 1000" enable-background="new 0 0 1000 1000" xml:space="preserve">
<metadata> Svg Vector Icons : http://www.sfont.cn </metadata>
<g><g transform="translate(0.000000,511.000000) scale(0.100000,-0.100000)"><path d="M279,4579.9c-167.4-110.8-231-367.8-132-521c21.2-33,987.8-928.9,2150-1994.5C3457,998.8,4407,119.5,4407,107.7c0-9.4-945.3-884.1-2100.5-1942.6C1153.7-2895.8,187.1-3796.3,161.2-3836.4c-28.3-49.5-44.8-117.9-44.8-195.7c0-155.6,68.4-261.7,219.2-337.1c155.6-77.8,285.3-56.6,431.4,70.7c61.3,51.9,1110.4,1011.4,2331.6,2133.5C4579.1-807,5333.5-99.7,5352.4-50.2c42.4,101.4,35.4,257-18.9,348.9c-44.8,77.8-4545.3,4219.9-4663.1,4293C569,4653,380.4,4648.3,279,4579.9z"/><path d="M5562.2,3827.8c-122.6-84.9-172.1-167.4-181.5-306.5c-7.1-101.4,0-141.5,44.8-209.8c30.6-47.1,829.9-782.7,1775.2-1633.7c947.7-853.4,1721-1558.3,1721-1567.7c0-11.8-768.5-712-1709.2-1558.3c-940.6-844-1728-1560.7-1749.3-1586.6c-120.2-148.5-99-367.8,49.5-513.9c113.2-113.2,257-141.4,398.4-75.4c103.7,47.1,3781.4,3335.9,3913.4,3498.5c61.3,80.2,75.4,115.5,75.4,214.5c0,63.7-16.5,150.9-35.4,193.3c-33,70.7-3814.4,3500.9-3932.3,3566.9C5845.1,3898.6,5649.4,3886.8,5562.2,3827.8z"/></g></g>
</svg>