<?xml version="1.0" encoding="utf-8"?>
<!-- Svg Vector Icons : http://www.sfont.cn -->
<!DOCTYPE svg PUBLIC "-//W3C//DTD SVG 1.1//EN" "http://www.w3.org/Graphics/SVG/1.1/DTD/svg11.dtd">
<svg version="1.1" xmlns="http://www.w3.org/2000/svg" xmlns:xlink="http://www.w3.org/1999/xlink" x="0px" y="0px" viewBox="0 0 1000 1000" enable-background="new 0 0 1000 1000" xml:space="preserve">
<metadata> Svg Vector Icons : http://www.sfont.cn </metadata>
<g><g><path d="M806.3,10H193.8C92.2,10,10,92.2,10,193.8v612.5C10,907.8,92.2,990,193.8,990h612.5C907.8,990,990,907.8,990,806.3V193.8C990,92.2,907.8,10,806.3,10z M726.2,688.5c0,20.8-16.9,37.7-37.7,37.7h-75.4c-20.8,0-37.7-16.9-37.7-37.7V552.1L365.5,718.9c-5.2,2.6-10.9,3.9-16.5,3.9c-6.7,0-13.4-1.8-19.3-5.4c-10.9-6.6-18.1-18.3-18.1-30.8V313.5c0-12.6,7.2-24.3,18.1-30.8c10.9-6.6,24.5-7.2,35.9-1.5l209.9,166.7V311.5c0-20.8,16.9-37.7,37.7-37.7h75.4c20.8,0,37.7,16.9,37.7,37.7V688.5z"/></g><g></g><g></g><g></g><g></g><g></g><g></g><g></g><g></g><g></g><g></g><g></g><g></g><g></g><g></g><g></g></g>
</svg>