<?xml version="1.0" encoding="utf-8"?>
<!-- Svg Vector Icons : http://www.sfont.cn -->
<!DOCTYPE svg PUBLIC "-//W3C//DTD SVG 1.1//EN" "http://www.w3.org/Graphics/SVG/1.1/DTD/svg11.dtd">
<svg version="1.1" xmlns="http://www.w3.org/2000/svg" xmlns:xlink="http://www.w3.org/1999/xlink" x="0px" y="0px" viewBox="0 0 1000 1000" enable-background="new 0 0 1000 1000" xml:space="preserve">
<metadata> Svg Vector Icons : http://www.sfont.cn </metadata>
<g><g transform="translate(0.000000,511.000000) scale(0.100000,-0.100000)"><path d="M981.9,4988.2c-387.9-92.5-710.5-399.2-832.3-784.9L100,4043.1V107.4v-3935.8l49.6-160.1c128.6-408.3,491.7-728.5,902.2-796.2c110.5-20.3,1222.4-24.8,4044-20.3l3890.6,6.8l133.1,51.9c293.2,110.5,509.7,295.5,642.8,543.6c146.6,275.1,137.6-4.5,137.6,4310.1c0,3340.3-4.5,3953.8-33.8,4057.5c-108.2,408.2-453.3,739.8-861.6,825.5C8776.7,5040.1,1182.6,5037.8,981.9,4988.2z M4252.3,2676.3c69.9-33.8,108.3-72.2,142.1-142.1c47.4-94.7,47.4-119.5,47.4-2417.8c0-2250.9-2.3-2323.1-45.1-2417.8c-74.4-162.4-148.9-185-683.4-185c-494,0-550.3,11.3-654.1,133.1l-60.9,74.4V118.7v2399.8l69.9,81.2c38.3,42.9,101.5,88,142.1,99.2c38.3,11.3,266.2,22.5,507.5,22.5C4116.9,2723.7,4166.6,2719.2,4252.3,2676.3z M6855,2674.1c194-101.5,180.4,101.5,180.4-2550.9c0-2591.5,9-2440.4-144.4-2548.7c-65.4-47.4-94.7-49.6-554.8-56.4c-545.8-6.8-595.4,4.5-692.4,151.1l-51.9,76.7v2366c0,2528.3-4.5,2426.8,108.3,2528.3c74.4,67.7,157.9,78.9,613.5,81.2C6728.7,2723.7,6760.3,2721.5,6855,2674.1z"/></g></g>
</svg>