<?xml version="1.0" encoding="utf-8"?>
<!-- Svg Vector Icons : http://www.sfont.cn -->
<!DOCTYPE svg PUBLIC "-//W3C//DTD SVG 1.1//EN" "http://www.w3.org/Graphics/SVG/1.1/DTD/svg11.dtd">
<svg version="1.1" xmlns="http://www.w3.org/2000/svg" xmlns:xlink="http://www.w3.org/1999/xlink" x="0px" y="0px" viewBox="0 0 1000 1000" enable-background="new 0 0 1000 1000" xml:space="preserve">
<metadata> Svg Vector Icons : http://www.sfont.cn </metadata>
<g><g transform="translate(0.000000,511.000000) scale(0.100000,-0.100000)"><path d="M9343.9,4610c-87.3-51.9-4594.1-4195.6-4653.1-4280.5c-84.9-115.6-92-297.1-21.2-410.4c30.7-47.2,1030.6-978.7,2224-2073c1193.3-1094.3,2223.9-2040,2290-2101.3c214.6-200.5,415.1-212.3,589.6-35.4c158,158,165.1,372.6,14.2,533c-35.4,37.7-992.9,917.4-2127.3,1957.5C6525.6-757.7,5596.4,100.8,5596.4,112.5c0,9.4,950.4,889.1,2110.8,1955.1c1160.3,1063.6,2129.6,1969.2,2153.2,2011.7c84.9,155.6,28.3,389.1-120.3,500C9662.2,4635.9,9419.3,4654.8,9343.9,4610z"/><path d="M4087,3862.4c-68.4-28.3-3860.7-3448-3926.7-3542.3C87.2,221,80.1,11.1,141.4-83.2c61.3-92,3837.1-3488,3933.8-3537.6c108.5-56.6,205.2-54.2,330.2,9.4c176.9,89.6,254.7,292.4,186.3,488.2c-18.9,54.2-490.5,492.9-1768.8,1643.8C1865.4-613.8,1080.1,100.8,1080.1,112.5c0,9.4,783,724,1742.8,1589.6c1191,1073.1,1752.3,1594.3,1773.5,1646.1c77.8,184-4.7,415.1-174.5,495.3C4334.6,3886,4167.2,3893,4087,3862.4z"/></g></g>
</svg>