<?xml version="1.0" encoding="utf-8"?>
<!-- Svg Vector Icons : http://www.sfont.cn -->
<!DOCTYPE svg PUBLIC "-//W3C//DTD SVG 1.1//EN" "http://www.w3.org/Graphics/SVG/1.1/DTD/svg11.dtd">
<svg version="1.1" xmlns="http://www.w3.org/2000/svg" xmlns:xlink="http://www.w3.org/1999/xlink" x="0px" y="0px" viewBox="0 0 1000 1000" enable-background="new 0 0 1000 1000" xml:space="preserve">
<metadata> Svg Vector Icons : http://www.sfont.cn </metadata>
<g><g transform="translate(0.000000,511.000000) scale(0.100000,-0.100000)"><path d="M8814.7,3286.6c-64.4-64.4-116.5-128.9-116.5-141.2c0-12.4,96.6-121.4,215.6-240.4l218-218H8096.1c-1112.6,0-1253.8-12.4-1556.1-136.3c-530.3-215.6-1023.4-758.2-1509-1667.6c-89.2-166-166-302.3-173.5-302.3c-7.4,0-79.3,126.4-161.1,277.5c-599.7,1117.5-1142.3,1642.8-1851,1789c-161.1,32.2-396.5,39.6-1469.4,39.6H100v-198.2v-198.2h1271.1c1429.7,0,1444.6-2.5,1786.5-180.9c436.1-225.5,864.8-780.5,1343-1732L4637,105L4436.3-279c-488.1-936.6-877.2-1419.8-1320.7-1637.9c-299.8-148.7-349.4-153.6-1744.4-153.6H100v-198.2V-2467h1276.1c1070.4,0,1308.3,7.4,1469.4,39.6c698.8,143.7,1243.9,664.1,1828.7,1749.4c94.2,175.9,175.9,317.2,183.4,317.2c7.4,0,84.2-136.3,173.5-302.3c483.2-901.9,966.4-1437.2,1501.6-1662.6c304.8-128.8,441.1-141.2,1563.6-141.2h1035.7l-218-218c-118.9-118.9-215.6-228-215.6-242.8c0-32.2,228-257.7,260.2-257.7c14.9,0,230.4,205.7,483.2,458.4l458.4,458.4l-458.4,458.4c-252.7,252.7-470.8,458.4-483.2,458.4c-32.2,0-260.2-228-260.2-260.2c0-12.4,96.6-121.4,215.6-240.4l218-218.1H8103.5c-832.6,0-1058,7.4-1186.9,37.2C6317-1892.1,5858.6-1399,5273.8-271.6l-195.7,379.1l128.8,255.2c562.5,1120,1015.9,1652.7,1583.4,1858.4c158.6,57,180.9,57,1251.3,64.4l1090.3,7.4L8916.3,2075c-121.4-121.4-218-230.4-218-245.3c0-32.2,228-257.7,260.2-257.7c14.9,0,230.4,205.7,483.2,458.4l458.4,458.4l-458.4,458.4c-252.7,252.7-470.8,458.4-483.2,458.4C8943.6,3405.6,8879.1,3351.1,8814.7,3286.6z"/></g></g>
</svg>