<?xml version="1.0" encoding="utf-8"?>
<!-- Svg Vector Icons : http://www.sfont.cn -->
<!DOCTYPE svg PUBLIC "-//W3C//DTD SVG 1.1//EN" "http://www.w3.org/Graphics/SVG/1.1/DTD/svg11.dtd">
<svg version="1.1" xmlns="http://www.w3.org/2000/svg" xmlns:xlink="http://www.w3.org/1999/xlink" x="0px" y="0px" viewBox="0 0 1000 1000" enable-background="new 0 0 1000 1000" xml:space="preserve">
<metadata> Svg Vector Icons : http://www.sfont.cn </metadata>
<g><path d="M732.5,757.5H267.5C125.5,757.5,10,642,10,500c0-68.8,26.8-133.4,75.4-182.1c9.8-9.8,25.7-9.8,35.4,0c9.8,9.8,9.8,25.7,0,35.4C81.7,392.5,60.1,444.6,60.1,500c0,114.4,93,207.4,207.4,207.4h464.9c13.8,0,25.1,11.2,25.1,25.1C757.5,746.3,746.3,757.5,732.5,757.5z"/><path d="M896.8,689.4c-6.4,0-12.8-2.4-17.7-7.3c-9.8-9.8-9.8-25.7,0-35.4c39.2-39.2,60.7-91.3,60.7-146.6c0-114.4-93-207.4-207.4-207.4H267.5c-13.8,0-25.1-11.2-25.1-25.1c0-13.8,11.2-25.1,25.1-25.1h464.9C874.5,242.5,990,358,990,500c0,68.8-26.8,133.4-75.4,182.1C909.7,687,903.3,689.4,896.8,689.4z"/><path d="M354.7,369.2L180.3,267.5l174.4-101.7V369.2z"/><path d="M645.3,630.8l174.3,101.7L645.3,834.2V630.8z"/></g>
</svg>