<?xml version="1.0" encoding="utf-8"?>
<!-- Svg Vector Icons : http://www.sfont.cn -->
<!DOCTYPE svg PUBLIC "-//W3C//DTD SVG 1.1//EN" "http://www.w3.org/Graphics/SVG/1.1/DTD/svg11.dtd">
<svg version="1.1" xmlns="http://www.w3.org/2000/svg" xmlns:xlink="http://www.w3.org/1999/xlink" x="0px" y="0px" viewBox="0 0 1000 1000" enable-background="new 0 0 1000 1000" xml:space="preserve">
<metadata> Svg Vector Icons : http://www.sfont.cn </metadata>
<g><g transform="matrix(1 0 0 -1 0 1008)"><path d="M822.1,729.2c57.5-62,86.2-135.7,86.2-221.2c0-84.7-28.4-158.4-85.1-221.2l-29.5,29.5c49.2,53.7,73.7,117.6,73.7,191.7c0,72.6-24.6,136.5-73.7,191.7L822.1,729.2z M622.5,957.2H480.7l-163.3-245H132.5V303.8h184.9l163.3-245h141.8V957.2z M663.3,998V18H459.2L295.8,263H91.7v490h204.2l163.3,245H663.3z"/></g></g>
</svg>